<svg xmlns="http://www.w3.org/2000/svg" viewBox="0 0 24.99 63.86">
    <style>
        .chain-color {
        	fill: #010101
        }
        @media (prefers-color-scheme: dark) {
            .chain-color {
                fill: #999999
            }
        }
    </style>
    <g id="Layer_2" data-name="Layer 2">
        <g id="Layer_1-2" data-name="Layer 1">
            <path d="M17.27,34.45v5.19a2.6,2.6,0,0,1,1.95,2.41V56.22a2.74,2.74,0,0,1-2.88,2.55H8.65a2.74,2.74,0,0,1-2.88-2.55V42.05A2.51,2.51,0,0,1,7.3,39.81l.42-.16V34.46l-.42,0C3.17,35.08,0,38.24,0,42.05V56.22c0,4.21,3.88,7.64,8.65,7.64h7.69c4.77,0,8.65-3.43,8.65-7.64V54.1h0v-12C25,38.11,21.6,34.86,17.27,34.45Z" class="chain-color"/>
            <path d="M16.34,0H8.46A11.11,11.11,0,0,0,7.3.1C3.17.68,0,3.83,0,7.64V21.81c0,3.94,3.38,7.19,7.72,7.6V24.22a2.58,2.58,0,0,1-1.95-2.41V7.64A2.52,2.52,0,0,1,7.3,5.4a3.36,3.36,0,0,1,1.16-.29l.19,0h7.69a2.74,2.74,0,0,1,2.88,2.55v4.91h0v9.25a2.6,2.6,0,0,1-1.95,2.41v5.19C21.6,29,25,25.75,25,21.81V15.87h0V7.64C25,3.43,21.11,0,16.34,0Z" class="chain-color"/>
            <path d="M13.25,41.18a2,2,0,0,0,2.13-1.88v-13a2,2,0,0,0-2.13-1.88H11.74a2,2,0,0,0-2.13,1.88v13a2,2,0,0,0,2.13,1.88Z" style="fill:#d32328"/>
        </g>
    </g>
</svg>
