<svg xmlns="http://www.w3.org/2000/svg" viewBox="0 0 265.35 64.78"><g data-name="Layer 2"><g data-name="Layer 1"><path d="M2.28 55h6.83V9.33H2.28L0 1.9A1.38 1.38 0 01.72.59a6.53 6.53 0 012.8-.4H28a6.49 6.49 0 012.8.4 1.39 1.39 0 01.73 1.31L29.2 9.33h-6.84V55h18.23l4-13.15h6.53a1.42 1.42 0 011.34.7 5.89 5.89 0 01.42 2.71v17.18a1.37 1.37 0 01-.73 1.31 6.44 6.44 0 01-2.79.4H3.52a6.53 6.53 0 01-2.8-.4A1.38 1.38 0 010 62.44zM97.92 55.51H104V24.69h-6.08l-2.17-6.93a1.37 1.37 0 01.72-1.3 6.46 6.46 0 012.8-.41h12.32l1.66 3.82a47.39 47.39 0 017-3.16 25.23 25.23 0 018.86-1.56 28.44 28.44 0 0110.66 1.66 13.06 13.06 0 016.16 4.87 18.93 18.93 0 012.8 7.83 74.44 74.44 0 01.67 10.64v15.36h5.6l2.18 6.93a1.39 1.39 0 01-.73 1.31 6.44 6.44 0 01-2.79.4h-13.49a6.46 6.46 0 01-2.8-.4 1.38 1.38 0 01-.72-1.31v-25.2a37.89 37.89 0 00-.26-4.32 11 11 0 00-1.3-4.06 8.31 8.31 0 00-3.09-3.07 10.87 10.87 0 00-5.54-1.2 13.86 13.86 0 00-5.9 1.15 28.86 28.86 0 00-3.83 2.06v27.71h6.1l2.18 6.93a1.37 1.37 0 01-.73 1.31 6.44 6.44 0 01-2.79.4H99.27a6.49 6.49 0 01-2.8-.4 1.38 1.38 0 01-.72-1.31zM164.28 55.51h6.11V8.63h-6.11l-2.18-6.92a1.39 1.39 0 01.73-1.31 6.46 6.46 0 012.8-.4h14a6.49 6.49 0 012.8.4 1.38 1.38 0 01.72 1.31v33.62h9.43l8.9-10.64h-6.11l-2.17-6.93a1.37 1.37 0 01.72-1.3 6.46 6.46 0 012.8-.41h21a6.4 6.4 0 012.79.41 1.38 1.38 0 01.73 1.3l-2.18 6.93h-5.59l-11.29 13.76a11.85 11.85 0 012.22 1.45 9.45 9.45 0 011.6 1.81 25.58 25.58 0 011.44 2.41l1.76 3.26 4.35 8.13h6.63l2.17 6.93a1.38 1.38 0 01-.72 1.31 6.49 6.49 0 01-2.8.4h-11.27a5.9 5.9 0 01-2.8-.45 3.17 3.17 0 01-1.14-1.26l-5.38-11.24a17.94 17.94 0 00-4.3-5.93 9.52 9.52 0 00-6.16-1.8h-4.66v12h6.11l2.18 6.93a1.39 1.39 0 01-.73 1.31 6.44 6.44 0 01-2.79.4h-22.26a6.46 6.46 0 01-2.8-.4 1.39 1.39 0 01-.73-1.31zM228.59 55.51h6.11V24.69h-6.11l-2.17-6.93a1.37 1.37 0 01.72-1.3 6.42 6.42 0 012.8-.41h12.32l2 4.52a25.42 25.42 0 016.74-3.81 22.55 22.55 0 018.39-1.61 20.46 20.46 0 013.42.3q.93 3.72 1.5 5.73c.38 1.34.64 2.34.78 3s.24 1.14.31 1.4a1 1 0 01-1.14 1.11 10.65 10.65 0 01-3.68-.71 13.29 13.29 0 00-4.5-.7 14 14 0 00-4.66.8 12.67 12.67 0 00-3.94 2.21v27.22h7.15l2.17 6.93a1.38 1.38 0 01-.72 1.31 6.53 6.53 0 01-2.8.4h-23.34a6.46 6.46 0 01-2.8-.4 1.38 1.38 0 01-.72-1.31zM80.76 35.38v5.19a2.59 2.59 0 012 2.4v14.17a2.74 2.74 0 01-2.89 2.55h-7.72a2.74 2.74 0 01-2.89-2.55V43a2.53 2.53 0 011.54-2.24 2.86 2.86 0 01.41-.15v-5.22h-.41c-4.13.58-7.3 3.74-7.3 7.54v14.21c0 4.22 3.88 7.64 8.65 7.64h7.68c4.77 0 8.65-3.42 8.65-7.64V43c0-4-3.38-7.21-7.72-7.62zM79.83.93H72a8.77 8.77 0 00-1.2.07c-4.13.57-7.3 3.73-7.3 7.54v14.2c0 3.93 3.38 7.18 7.71 7.59v-5.19a2.59 2.59 0 01-1.95-2.4V8.57a2.52 2.52 0 011.54-2.24A3 3 0 0172 6h7.88a2.74 2.74 0 012.89 2.55v14.19a2.59 2.59 0 01-2 2.4v5.19c4.34-.41 7.72-3.66 7.72-7.59V8.57C88.48 4.35 84.6.93 79.83.93z" fill="#010101"/><path d="M76.74 42.11a2 2 0 002.13-1.88V27.17a2 2 0 00-2.13-1.88h-1.51a2 2 0 00-2.12 1.88v13.06a2 2 0 002.12 1.88z" fill="#d32328"/></g></g></svg>
